# xmcd
#
# Track frame offsets:
#	150
#	19987
#	32987
#	49037
#	60437
#	71462
#	82887
#	97462
#	110200
#	121962
#
# Disc length: 1791 seconds
#
# Revision: 2
# Processed by: cddbd v1.4PL0 Copyright (c) Steve Scherf et al.
# Submitted via: audiograbber 1.82.02
#
DISCID=8a06fd0a
DTITLE=Marty Robbins and Johnny Horton - Marty Robbins/Johnny Horton
DYEAR=1991
DGENRE=Country
TTITLE0=Marty Robbins - El Paso
TTITLE1=Marty Robbins - Devil Woman
TTITLE2=Marty Robbins - My Woman, My Woman, My Wife
TTITLE3=Marty Robbins - A White Sport Coat
TTITLE4=Marty Robbins - Singing The Blues
TTITLE5=Johnny Horton - The Battle of New Orleans
TTITLE6=Johnny Horton - Sink The Bismarck
TTITLE7=Johnny Horton - North To Alaska
TTITLE8=Johnny Horton - When It's Springtime In Alaska
TTITLE9=Johnny Horton - All For The Love Of A Girl
EXTD=
EXTT0=
EXTT1=
EXTT2=
EXTT3=
EXTT4=
EXTT5=
EXTT6=
EXTT7=
EXTT8=
EXTT9=
PLAYORDER=
